<svg width="360" height="115" xmlns="http://www.w3.org/2000/svg" xmlns:xlink="http://www.w3.org/1999/xlink">
    <style>
        /* <![CDATA[ */
        line { stroke: black; stroke-width: 1px; }
        polyline { fill: none; stroke: black; stroke-width: 1px; }
        rect { fill: none; stroke: black; }
        text { text-anchor: middle; }
        /* ]]> */
    </style>
    <defs>
        <g id="box">
            <rect x="0" y="0" width="100" height="50"/>
            <line x1="0" y1="25" x2="100" y2="25"/>
            <line x1="75" y1="0" x2="75" y2="50"/>
        </g>
    </defs>
    <g transform="translate(5, 60)">
        <use xlink:href="#box"/>
        <text x="37.5" y="18">HKE</text>
        <text x="87.5" y="18">3</text>
        <text x="37.5" y="43">MSE</text>
        <text x="87.5" y="43">1</text>
    </g>
    <g transform="translate(105, 70)">
        <polyline points="0,15 12.5,15 12.5,0 25,0"/>
    </g>
    <g transform="translate(130, 32.5)">
        <use xlink:href="#box"/>
        <text x="37.5" y="18">FW</text>
        <text x="87.5" y="18">1</text>
        <text x="37.5" y="43">HKE</text>
        <text x="87.5" y="43">3</text>
    </g>
    <g transform="translate(230, 42.5)">
        <polyline points="0,15 12.5,15 12.5,0 25,0"/>
    </g>
    <g transform="translate(255, 5)">
        <use xlink:href="#box"/>
        <text x="37.5" y="18">AHQ</text>
        <text x="87.5" y="18">3</text>
        <text x="37.5" y="43">HKE</text>
        <text x="87.5" y="43">0</text>
    </g>
</svg>

