<svg width="235" height="115" xmlns="http://www.w3.org/2000/svg" xmlns:xlink="http://www.w3.org/1999/xlink">
    <style>
        /* <![CDATA[ */
        line { stroke: black; stroke-width: 1px; }
        polyline { fill: none; stroke: black; stroke-width: 1px; }
        rect { fill: none; stroke: black; }
        text { text-anchor: middle; }
        /* ]]> */
    </style>
    <defs>
        <g id="box">
            <rect x="0" y="0" width="100" height="50"/>
            <line x1="0" y1="25" x2="100" y2="25"/>
            <line x1="75" y1="0" x2="75" y2="50"/>
        </g>
    </defs>
    <g transform="translate(5, 5)">
        <title>Semifinal #1</title>
        <use xlink:href="#box"/>
        <text x="37.5" y="18">HKE</text>
        <text x="87.5" y="18">3</text>
        <text x="37.5" y="43">TPA</text>
        <text x="87.5" y="43">2</text>
    </g>
    <g transform="translate(5, 60)">
        <title>Semifinal #2</title>
        <use xlink:href="#box"/>
        <text x="37.5" y="18">FW</text>
        <text x="87.5" y="18">3</text>
        <text x="37.5" y="43">MSE</text>
        <text x="87.5" y="43">0</text>
    </g>
    <g transform="translate(105, 30)">
        <polyline points="0, 0 12.5, 0 12.5,15 25,15"/>
        <polyline points="0,55 12.5,55 12.5,40 25,40"/>
    </g>
    <g transform="translate(130, 32.5)">
        <title>Final</title>
        <use xlink:href="#box"/>
        <text x="37.5" y="18">HKE</text>
        <text x="87.5" y="18">2</text>
        <text x="37.5" y="43">FW</text>
        <text x="87.5" y="43">3</text>
    </g>
</svg>

