<svg width="497.5" height="207.5" xmlns="http://www.w3.org/2000/svg" xmlns:xlink="http://www.w3.org/1999/xlink">
    <style>
        /* <![CDATA[ */
        line { stroke: black; stroke-width: 1px; }
        polyline { fill: none; stroke: black; stroke-width: 1px; }
        rect { fill: none; stroke: black; }
        text { text-anchor: middle; }
        /* ]]> */
    </style>
    <defs>
        <g id="box">
            <rect x="0" y="0" width="100" height="50"/>
            <line x1="0" y1="25" x2="100" y2="25"/>
            <line x1="75" y1="0" x2="75" y2="50"/>
        </g>
    </defs>
    <polyline points="12.5,0 12.5,12.5 25,12.5" transform="translate(-7.5, 152.5)"/>
    <polyline points="12.5,0 12.5,12.5 25,12.5" transform="translate(-7.5, 177.5)"/>
    <g transform="translate(17.5, 5)">
        <title>Relegation #1</title>
        <use xlink:href="#box"/>
        <text x="37.5" y="18">AAA</text>
        <text x="87.5" y="18">2</text>
        <text x="37.5" y="43">TGD</text>
        <text x="87.5" y="43">0</text>
    </g>
    <g transform="translate(17.5, 85)">
        <title>Relegation #2</title>
        <use xlink:href="#box"/>
        <text x="37.5" y="18">CLG</text>
        <text x="87.5" y="18">1</text>
        <text x="37.5" y="43">FNC</text>
        <text x="87.5" y="43">2</text>
    </g>
    <g transform="translate(17.5, 152.5)">
        <title>Fifth place match</title>
        <use xlink:href="#box"/>
        <text x="37.5" y="18">TGD</text>
        <text x="87.5" y="18">0</text>
        <text x="37.5" y="43">CLG</text>
        <text x="87.5" y="43">1</text>
    </g>
    <line x1="0" y1="0" x2="25" y2="0" transform="translate(117.5,  30)"/>
    <line x1="0" y1="0" x2="25" y2="0" transform="translate(117.5, 110)"/>
    <polyline points="12.5,0 12.5,12.5 25,12.5" transform="translate(117.5, 140)"/>
    <polyline points="12.5,0 12.5,12.5 25,12.5" transform="translate(117.5, 165)"/>
    <g transform="translate(142.5, 17.5)">
        <title>Winners' Semifinal #1</title>
        <use xlink:href="#box"/>
        <text x="37.5" y="18">AAA</text>
        <text x="87.5" y="18">2</text>
        <text x="37.5" y="43">TSM</text>
        <text x="87.5" y="43">0</text>
    </g>
    <g transform="translate(142.5, 72.5)">
        <title>Winners' Semifinal #2</title>
        <use xlink:href="#box"/>
        <text x="37.5" y="18">EG</text>
        <text x="87.5" y="18">0</text>
        <text x="37.5" y="43">FNC</text>
        <text x="87.5" y="43">2</text>
    </g>
    <g transform="translate(142.5, 140)">
        <title>Losers' Semifinal</title>
        <use xlink:href="#box"/>
        <text x="37.5" y="18">TSM</text>
        <text x="87.5" y="18">2</text>
        <text x="37.5" y="43">EG</text>
        <text x="87.5" y="43">0</text>
    </g>
    <g transform="translate(242.5, 42.5)">
        <polyline points="0,0  12.5,0  12.5,15 25,15"/>
        <polyline points="0,55 12.5,55 12.5,40 25,40"/>
    </g>
    <polyline points="12.5,0 12.5,12.5 25,12.5" transform="translate(242.5, 127.5)"/>
    <line x1="0" y1="0" x2="25" y2="0" transform="translate(242.5, 165)"/>
    <g transform="translate(267.5, 45)">
        <title>Winners' Final</title>
        <use xlink:href="#box"/>
        <text x="37.5" y="18">AAA</text>
        <text x="87.5" y="18">0</text>
        <text x="37.5" y="43">FNC</text>
        <text x="87.5" y="43">2</text>
    </g>
    <g transform="translate(267.5, 127.5)">
        <title>Losers' Final</title>
        <use xlink:href="#box"/>
        <text x="37.5" y="18">AAA</text>
        <text x="87.5" y="18">2</text>
        <text x="37.5" y="43">TSM</text>
        <text x="87.5" y="43">0</text>
    </g>
    <g transform="translate(367.5, 70)">
        <polyline points="0,0    12.5,0    12.5,28.75 25,28.75"/>
        <polyline points="0,82.5 12.5,82.5 12.5,53.75 25,53.75"/>
    </g>
    <g transform="translate(392.5, 86.25)">
        <title>Grand Final</title>
        <use xlink:href="#box"/>
        <text x="37.5" y="18">FNC</text>
        <text x="87.5" y="18">2</text>
        <text x="37.5" y="43">AAA</text>
        <text x="87.5" y="43">1</text>
    </g>
</svg>

