<svg width="497.5" height="207.5" xmlns="http://www.w3.org/2000/svg" xmlns:xlink="http://www.w3.org/1999/xlink">
    <style>
        /* <![CDATA[ */
        #box, #line1, #line2, #line3, #line4 { fill: none; stroke: black; stroke-width: 1px; }
        text { text-anchor: middle; }
        /* ]]> */
    </style>
    <defs>
        <path id="box" d="M0 0H100V50H0ZM0 25H100M75 0V50"/>
        <path id="line1" d="M0 0V12.5H12.5"/>
        <path id="line2" d="M0 0H25"/>
    </defs>
    <use xlink:href="#line1" transform="translate(5 152.5)"/>
    <use xlink:href="#line1" transform="translate(5 177.5)"/>
    <g transform="translate(17.5 5)">
        <title>Relegation #1</title>
        <use xlink:href="#box"/>
        <text x="37.5" y="18">AAA</text>
        <text x="87.5" y="18">2</text>
        <text x="37.5" y="43">TGD</text>
        <text x="87.5" y="43">0</text>
    </g>
    <g transform="translate(17.5 85)">
        <title>Relegation #2</title>
        <use xlink:href="#box"/>
        <text x="37.5" y="18">CLG</text>
        <text x="87.5" y="18">1</text>
        <text x="37.5" y="43">FNC</text>
        <text x="87.5" y="43">2</text>
    </g>
    <g transform="translate(17.5 152.5)">
        <title>Fifth place match</title>
        <use xlink:href="#box"/>
        <text x="37.5" y="18">TGD</text>
        <text x="87.5" y="18">0</text>
        <text x="37.5" y="43">CLG</text>
        <text x="87.5" y="43">1</text>
    </g>
    <use xlink:href="#line2" transform="translate(117.5 30)"/>
    <use xlink:href="#line2" transform="translate(117.5 110)"/>
    <use xlink:href="#line1" transform="translate(130 140)"/>
    <use xlink:href="#line1" transform="translate(130 165)"/>
    <g transform="translate(142.5 17.5)">
        <title>Winners' Semifinal #1</title>
        <use xlink:href="#box"/>
        <text x="37.5" y="18">AAA</text>
        <text x="87.5" y="18">2</text>
        <text x="37.5" y="43">TSM</text>
        <text x="87.5" y="43">0</text>
    </g>
    <g transform="translate(142.5 72.5)">
        <title>Winners' Semifinal #2</title>
        <use xlink:href="#box"/>
        <text x="37.5" y="18">EG</text>
        <text x="87.5" y="18">0</text>
        <text x="37.5" y="43">FNC</text>
        <text x="87.5" y="43">2</text>
    </g>
    <g transform="translate(142.5 140)">
        <title>Losers' Semifinal</title>
        <use xlink:href="#box"/>
        <text x="37.5" y="18">TSM</text>
        <text x="87.5" y="18">2</text>
        <text x="37.5" y="43">EG</text>
        <text x="87.5" y="43">0</text>
    </g>
    <path id="line3" d="M242.5 42.5h12.5v15h12.5M242.5 97.5h12.5v-15h12.5"/>
    <use xlink:href="#line1" transform="translate(255 127.5)"/>
    <use xlink:href="#line2" transform="translate(242.5 165)"/>
    <g transform="translate(267.5 45)">
        <title>Winners' Final</title>
        <use xlink:href="#box"/>
        <text x="37.5" y="18">AAA</text>
        <text x="87.5" y="18">0</text>
        <text x="37.5" y="43">FNC</text>
        <text x="87.5" y="43">2</text>
    </g>
    <g transform="translate(267.5 127.5)">
        <title>Losers' Final</title>
        <use xlink:href="#box"/>
        <text x="37.5" y="18">AAA</text>
        <text x="87.5" y="18">2</text>
        <text x="37.5" y="43">TSM</text>
        <text x="87.5" y="43">0</text>
    </g>
    <path id="line4" d="M367.5 70h12.5v28.75h12.5M367.5 152.5h12.5v-28.75h12.5"/>
    <g transform="translate(392.5 86.25)">
        <title>Grand Final</title>
        <use xlink:href="#box"/>
        <text x="37.5" y="18">FNC</text>
        <text x="87.5" y="18">2</text>
        <text x="37.5" y="43">AAA</text>
        <text x="87.5" y="43">1</text>
    </g>
</svg>
