<svg width="360" height="225" xmlns="http://www.w3.org/2000/svg" xmlns:xlink="http://www.w3.org/1999/xlink">
    <style>
        /* <![CDATA[ */
        line { stroke: black; stroke-width: 1px; }
        polyline { fill: none; stroke: black; stroke-width: 1px; }
        rect { fill: white; stroke: black; }
        text { text-anchor: middle; }
        /* ]]> */
    </style>
    <defs>
        <g id="box">
            <rect x="0" y="0" width="100" height="50"/>
            <line x1="0" y1="25" x2="100" y2="25"/>
            <line x1="75" y1="0" x2="75" y2="50"/>
        </g>
    </defs>
    <g transform="translate(5, 5)">
        <use xlink:href="#box"/>
        <text x="37.5" y="18">M5</text>
        <text x="87.5" y="18">2</text>
        <text x="37.5" y="43">IG</text>
        <text x="87.5" y="43">0</text>
    </g>
    <g transform="translate(5, 60)">
        <use xlink:href="#box"/>
        <text x="37.5" y="18">TPA</text>
        <text x="87.5" y="18">2</text>
        <text x="37.5" y="43">NJ</text>
        <text x="87.5" y="43">0</text>
    </g>
    <g transform="translate(5, 115)">
        <use xlink:href="#box"/>
        <text x="37.5" y="18">TSM</text>
        <text x="87.5" y="18">0</text>
        <text x="37.5" y="43">AZF</text>
        <text x="87.5" y="43">2</text>
    </g>
    <g transform="translate(5, 170)">
        <use xlink:href="#box"/>
        <text x="37.5" y="18">WE</text>
        <text x="87.5" y="18">1</text>
        <text x="37.5" y="43">CLG.EU</text>
        <text x="87.5" y="43">2</text>
    </g>
    <g transform="translate(105, 30)">
        <polyline points="0, 0 12.5, 0 12.5,15 25,15"/>
        <polyline points="0,55 12.5,55 12.5,40 25,40"/>
    </g>
    <g transform="translate(105, 140)">
        <polyline points="0, 0 12.5, 0 12.5,15 25,15"/>
        <polyline points="0,55 12.5,55 12.5,40 25,40"/>
    </g>
    <g transform="translate(130, 32.5)">
        <use xlink:href="#box"/>
        <text x="37.5" y="18">M5</text>
        <text x="87.5" y="18">1</text>
        <text x="37.5" y="43">TPA</text>
        <text x="87.5" y="43">2</text>
    </g>
    <g transform="translate(130, 142.5)">
        <use xlink:href="#box"/>
        <text x="37.5" y="18">AZF</text>
        <text x="87.5" y="18">2</text>
        <text x="37.5" y="43">CLG.EU</text>
        <text x="87.5" y="43">1</text>
    </g>
    <g transform="translate(230, 0)">
        <polyline points="0, 57.5  12.5, 57.5  12.5,100 25,100"/>
        <polyline points="0,167.5  12.5,167.5  12.5,125 25,125"/>
    </g>
    <g transform="translate(255, 87.5)">
        <use xlink:href="#box"/>
        <text x="37.5" y="18">TPA</text>
        <text x="87.5" y="18">3</text>
        <text x="37.5" y="43">AZF</text>
        <text x="87.5" y="43">1</text>
    </g>
</svg>

