<svg width="360" height="170" xmlns="http://www.w3.org/2000/svg" xmlns:xlink="http://www.w3.org/1999/xlink">
    <style>
        /* <![CDATA[ */
        .line { fill: none; stroke: black; stroke-width: 1px; }
        text { text-anchor: middle; dominant-baseline: central; }
        /* ]]> */
    </style>
    <g transform="translate(5 30)">
        <title>Quarterfinal #1</title>
        <path class="line" d="M0 0H100V50H0ZM0 25H100M75 0V50"/>
        <text x="37.5" y="12.5">UOL</text>
        <text x="87.5" y="12.5">0</text>
        <text x="37.5" y="37.5">MSF</text>
        <text x="87.5" y="37.5">3</text>
    </g>
    <g transform="translate(5 85)">
        <title>Quarterfinal #2</title>
        <path class="line" d="M0 0H100V50H0ZM0 25H100M75 0V50"/>
        <text x="37.5" y="12.5">G2</text>
        <text x="87.5" y="12.5">3</text>
        <text x="37.5" y="37.5">SPY</text>
        <text x="87.5" y="37.5">2</text>
    </g>
    <path class="line" d="M105 55h12.5v-12.5h12.5"/>
    <path class="line" d="M105 110h12.5v-12.5h12.5"/>
    <path class="line" d="M117.5 55v42.5"/>
    <g transform="translate(130 5)">
        <title>Semifinal #1</title>
        <path class="line" d="M0 0H100V50H0ZM0 25H100M75 0V50"/>
        <text x="37.5" y="12.5">FNC</text>
        <text x="87.5" y="12.5">1</text>
        <text x="37.5" y="37.5">MSF</text>
        <text x="87.5" y="37.5">3</text>
    </g>
    <g transform="translate(130 60)">
        <title>Semifinal #2</title>
        <path class="line" d="M0 0H100V50H0ZM0 25H100M75 0V50"/>
        <text x="37.5" y="12.5">H2K</text>
        <text x="87.5" y="12.5">0</text>
        <text x="37.5" y="37.5">G2</text>
        <text x="87.5" y="37.5">3</text>
    </g>
    <path class="line" d="M242.5 115v12.5h12.5"/>
    <path class="line" d="M242.5 140v12.5h12.5"/>
    <g transform="translate(255 115)">
        <title>Third Place Match</title>
        <path class="line" d="M0 0H100V50H0ZM0 25H100M75 0V50"/>
        <text x="37.5" y="12.5">FNC</text>
        <text x="87.5" y="12.5">3</text>
        <text x="37.5" y="37.5">H2K</text>
        <text x="87.5" y="37.5">2</text>
    </g>
    <path class="line" d="M230 30h12.5v15h12.5m0 25h-12.5v15h-12.5"/>
    <g transform="translate(255 32.5)">
        <title>Final</title>
        <path class="line" d="M0 0H100V50H0ZM0 25H100M75 0V50"/>
        <text x="37.5" y="12.5">MSF</text>
        <text x="87.5" y="12.5">0</text>
        <text x="37.5" y="37.5">G2</text>
        <text x="87.5" y="37.5">3</text>
    </g>
</svg>
