<svg width="360" height="225" xmlns="http://www.w3.org/2000/svg" xmlns:xlink="http://www.w3.org/1999/xlink">
    <style>
        /* <![CDATA[ */
        .line { fill: none; stroke: black; stroke-width: 1px; }
        text { text-anchor: middle; }
        /* ]]> */
    </style>
    <g transform="translate(5 5)">
        <title>Quarterfinal #1</title>
        <path class="line" d="M0 0H100V50H0ZM0 25H100M75 0V50"/>
        <text x="37.5" y="18">SKT</text>
        <text x="87.5" y="18">3</text>
        <text x="37.5" y="43">RNG</text>
        <text x="87.5" y="43">1</text>
    </g>
    <g transform="translate(5 60)">
        <title>Quarterfinal #2</title>
        <path class="line" d="M0 0H100V50H0ZM0 25H100M75 0V50"/>
        <text x="37.5" y="18">ROX</text>
        <text x="87.5" y="18">3</text>
        <text x="37.5" y="43">EDG</text>
        <text x="87.5" y="43">1</text>
    </g>
    <g transform="translate(5 115)">
        <title>Quarterfinal #3</title>
        <path class="line" d="M0 0H100V50H0ZM0 25H100M75 0V50"/>
        <text x="37.5" y="18">SSG</text>
        <text x="87.5" y="18">3</text>
        <text x="37.5" y="43">C9</text>
        <text x="87.5" y="43">0</text>
    </g>
    <g transform="translate(5 170)">
        <title>Quarterfinal #4</title>
        <path class="line" d="M0 0H100V50H0ZM0 25H100M75 0V50"/>
        <text x="37.5" y="18">H2K</text>
        <text x="87.5" y="18">3</text>
        <text x="37.5" y="43">ANX</text>
        <text x="87.5" y="43">0</text>
    </g>
    <path class="line" d="M105 30h12.5v15h12.5m0 25h-12.5v15h-12.5"/>
    <path class="line" d="M105 140h12.5v15h12.5m0 25h-12.5v15h-12.5"/>
    <g transform="translate(130 32.5)">
        <title>Semifinal #1</title>
        <path class="line" d="M0 0H100V50H0ZM0 25H100M75 0V50"/>
        <text x="37.5" y="18">SKT</text>
        <text x="87.5" y="18">3</text>
        <text x="37.5" y="43">ROX</text>
        <text x="87.5" y="43">2</text>
    </g>
    <g transform="translate(130 142.5)">
        <title>Semifinal #2</title>
        <path class="line" d="M0 0H100V50H0ZM0 25H100M75 0V50"/>
        <text x="37.5" y="18">SSG</text>
        <text x="87.5" y="18">3</text>
        <text x="37.5" y="43">H2K</text>
        <text x="87.5" y="43">0</text>
    </g>
    <path class="line" d="M230 57.5h12.5v42.5h12.5m0 25h-12.5v42.5h-12.5"/>
    <g transform="translate(255 87.5)">
        <title>Final</title>
        <path class="line" d="M0 0H100V50H0ZM0 25H100M75 0V50"/>
        <text x="37.5" y="18">SKT</text>
        <text x="87.5" y="18">3</text>
        <text x="37.5" y="43">SSG</text>
        <text x="87.5" y="43">2</text>
    </g>
</svg>
