<svg width="497.5" height="207.5" xmlns="http://www.w3.org/2000/svg" xmlns:xlink="http://www.w3.org/1999/xlink">
    <style>
        /* <![CDATA[ */
        .line { fill: none; stroke: black; stroke-width: 1px; }
        text { text-anchor: middle; }
        /* ]]> */
    </style>
    <path class="line" d="M5 140v12.5h12.5"/>
    <path class="line" d="M5 165v12.5h12.5"/>
    <g transform="translate(17.5 30)">
        <title>Relegation #1</title>
        <path class="line" d="M0 0H100V50H0ZM0 25H100M75 0V50"/>
        <text x="37.5" y="18">AAA</text>
        <text x="87.5" y="18">2</text>
        <text x="37.5" y="43">TGD</text>
        <text x="87.5" y="43">0</text>
    </g>
    <g transform="translate(17.5 85)">
        <title>Relegation #1</title>
        <path class="line" d="M0 0H100V50H0ZM0 25H100M75 0V50"/>
        <text x="37.5" y="18">CLG</text>
        <text x="87.5" y="18">1</text>
        <text x="37.5" y="43">FNC</text>
        <text x="87.5" y="43">2</text>
    </g>
    <g transform="translate(17.5 140)">
        <title>Fifth place match</title>
        <path class="line" d="M0 0H100V50H0ZM0 25H100M75 0V50"/>
        <text x="37.5" y="18">TGD</text>
        <text x="87.5" y="18">0</text>
        <text x="37.5" y="43">CLG</text>
        <text x="87.5" y="43">1</text>
    </g>
    <path class="line" d="M117.5 55h12.5v-12.5h12.5"/>
    <path class="line" d="M117.5 110h12.5v-12.5h12.5"/>
    <path class="line" d="M130 139.5v12.5h12.5"/>
    <path class="line" d="M130 164.5v12.5h12.5"/>
    <g transform="translate(142.5 5)">
        <title>Winners Semifinal #1</title>
        <path class="line" d="M0 0H100V50H0ZM0 25H100M75 0V50"/>
        <text x="37.5" y="18">TSM</text>
        <text x="87.5" y="18">0</text>
        <text x="37.5" y="43">AAA</text>
        <text x="87.5" y="43">2</text>
    </g>
    <g transform="translate(142.5 60)">
        <title>Winners Semifinal #2</title>
        <path class="line" d="M0 0H100V50H0ZM0 25H100M75 0V50"/>
        <text x="37.5" y="18">EG</text>
        <text x="87.5" y="18">0</text>
        <text x="37.5" y="43">FNC</text>
        <text x="87.5" y="43">2</text>
    </g>
    <g transform="translate(142.5 139.5)">
        <title>Losers Semifinal</title>
        <path class="line" d="M0 0H100V50H0ZM0 25H100M75 0V50"/>
        <text x="37.5" y="18">TSM</text>
        <text x="87.5" y="18">2</text>
        <text x="37.5" y="43">EG</text>
        <text x="87.5" y="43">0</text>
    </g>
    <path class="line" d="M242.5 30h12.5v15h12.5m0 25h-12.5v15h-12.5"/>
    <path class="line" d="M242.5 164.5h12.5v-12.5h12.5"/>
    <path class="line" d="M255 114.5v12.5h12.5"/>
    <g transform="translate(267.5 32.5)">
        <title>Winners Final</title>
        <path class="line" d="M0 0H100V50H0ZM0 25H100M75 0V50"/>
        <text x="37.5" y="18">AAA</text>
        <text x="87.5" y="18">0</text>
        <text x="37.5" y="43">FNC</text>
        <text x="87.5" y="43">2</text>
    </g>
    <g transform="translate(267.5 114.5)">
        <title>Losers Final</title>
        <path class="line" d="M0 0H100V50H0ZM0 25H100M75 0V50"/>
        <text x="37.5" y="18">AAA</text>
        <text x="87.5" y="18">2</text>
        <text x="37.5" y="43">TSM</text>
        <text x="87.5" y="43">0</text>
    </g>
    <path class="line" d="M367.5 57.5h12.5v28.5h12.5m0 25h-12.5v28.5h-12.5"/>
    <g transform="translate(392.5 73.5)">
        <title>Grand Final</title>
        <path class="line" d="M0 0H100V50H0ZM0 25H100M75 0V50"/>
        <text x="37.5" y="18">FNC</text>
        <text x="87.5" y="18">2</text>
        <text x="37.5" y="43">AAA</text>
        <text x="87.5" y="43">1</text>
    </g>
</svg>
