<svg width="485" height="60" xmlns="http://www.w3.org/2000/svg" xmlns:xlink="http://www.w3.org/1999/xlink">
    <style>
        /* <![CDATA[ */
        .line { fill: none; stroke: black; stroke-width: 1px; }
        text { text-anchor: middle; }
        /* ]]> */
    </style>
    <g transform="translate(5 5)">
        <title>Match #1</title>
        <path class="line" d="M0 0H100V50H0ZM0 25H100M75 0V50"/>
        <text x="37.5" y="18"></text>
        <text x="87.5" y="18">0</text>
        <text x="37.5" y="43"></text>
        <text x="87.5" y="43">0</text>
    </g>
    <g transform="translate(130 5)">
        <title>Match #2</title>
        <path class="line" d="M0 0H100V50H0ZM0 25H100M75 0V50"/>
        <text x="37.5" y="18"></text>
        <text x="87.5" y="18">0</text>
        <text x="37.5" y="43"></text>
        <text x="87.5" y="43">0</text>
    </g>
    <g transform="translate(255 5)">
        <title>Match #3</title>
        <path class="line" d="M0 0H100V50H0ZM0 25H100M75 0V50"/>
        <text x="37.5" y="18"></text>
        <text x="87.5" y="18">0</text>
        <text x="37.5" y="43"></text>
        <text x="87.5" y="43">0</text>
    </g>
    <g transform="translate(380 5)">
        <title>Match #4</title>
        <path class="line" d="M0 0H100V50H0ZM0 25H100M75 0V50"/>
        <text x="37.5" y="18"></text>
        <text x="87.5" y="18">0</text>
        <text x="37.5" y="43"></text>
        <text x="87.5" y="43">0</text>
    </g>
</svg>
