<svg width="360" height="225" xmlns="http://www.w3.org/2000/svg" xmlns:xlink="http://www.w3.org/1999/xlink">
    <style>
        /* <![CDATA[ */
        #box, #line1, #line2 { fill: none; stroke: black; stroke-width: 1px; }
        text { text-anchor: middle; }
        /* ]]> */
    </style>
    <defs>
        <path id="box" d="M0 0H100V50H0ZM0 25H100M75 0V50"/>
        <path id="line1" d="M0 0H12.5V15H25M0 55H12.5V40H25"/>
        <path id="line2" d="M0 0H12.5V42.5H25M0 110H12.5V67.5H25"/>
    </defs>
    <g transform="translate(5 5)">
        <title>Quarterfinal #1</title>
        <use xlink:href="#box"/>
        <text x="37.5" y="18">SKT</text>
        <text x="87.5" y="18">3</text>
        <text x="37.5" y="43">RNG</text>
        <text x="87.5" y="43">1</text>
    </g>
    <g transform="translate(5 60)">
        <title>Quarterfinal #2</title>
        <use xlink:href="#box"/>
        <text x="37.5" y="18">ROX</text>
        <text x="87.5" y="18">3</text>
        <text x="37.5" y="43">EDG</text>
        <text x="87.5" y="43">1</text>
    </g>
    <g transform="translate(5 115)">
        <title>Quarterfinal #3</title>
        <use xlink:href="#box"/>
        <text x="37.5" y="18">SSG</text>
        <text x="87.5" y="18">3</text>
        <text x="37.5" y="43">C9</text>
        <text x="87.5" y="43">0</text>
    </g>
    <g transform="translate(5 170)">
        <title>Quarterfinal #4</title>
        <use xlink:href="#box"/>
        <text x="37.5" y="18">H2K</text>
        <text x="87.5" y="18">3</text>
        <text x="37.5" y="43">ANX</text>
        <text x="87.5" y="43">0</text>
    </g>
    <use xlink:href="#line1" transform="translate(105 30)"/>
    <use xlink:href="#line1" transform="translate(105 140)"/>
    <g transform="translate(130 32.5)">
        <title>Semifinal #1</title>
        <use xlink:href="#box"/>
        <text x="37.5" y="18">SKT</text>
        <text x="87.5" y="18">3</text>
        <text x="37.5" y="43">ROX</text>
        <text x="87.5" y="43">2</text>
    </g>
    <g transform="translate(130 142.5)">
        <title>Semifinal #2</title>
        <use xlink:href="#box"/>
        <text x="37.5" y="18">SSG</text>
        <text x="87.5" y="18">3</text>
        <text x="37.5" y="43">H2K</text>
        <text x="87.5" y="43">0</text>
    </g>
    <use xlink:href="#line2" transform="translate(230 57.5)"/>
    <g transform="translate(255 87.5)">
        <title>Final</title>
        <use xlink:href="#box"/>
        <text x="37.5" y="18">SKT</text>
        <text x="87.5" y="18">3</text>
        <text x="37.5" y="43">SSG</text>
        <text x="87.5" y="43">2</text>
    </g>
</svg>
