<svg width="485" height="135" xmlns="http://www.w3.org/2000/svg" xmlns:xlink="http://www.w3.org/1999/xlink">
    <style>
        /* <![CDATA[ */
        .line { fill: none; stroke: black; stroke-width: 1px; }
        text { text-anchor: middle; }
        /* ]]> */
    </style>
    <g transform="translate(5 80)">
        <title>Round 1</title>
        <path class="line" d="M0 0H100V50H0ZM0 25H100M75 0V50"/>
        <text x="37.5" y="18">KOO</text>
        <text x="87.5" y="18">2</text>
        <text x="37.5" y="43">NJE</text>
        <text x="87.5" y="43">1</text>
    </g>
    <path class="line" d="M105 105h12.5v-12.5h12.5"/>
    <g transform="translate(130 55)">
        <title>Round 2</title>
        <path class="line" d="M0 0H100V50H0ZM0 25H100M75 0V50"/>
        <text x="37.5" y="18">CJE</text>
        <text x="87.5" y="18">0</text>
        <text x="37.5" y="43">KOO</text>
        <text x="87.5" y="43">3</text>
    </g>
    <path class="line" d="M230 80h12.5v-12.5h12.5"/>
    <g transform="translate(255 30)">
        <title>Round 3</title>
        <path class="line" d="M0 0H100V50H0ZM0 25H100M75 0V50"/>
        <text x="37.5" y="18">KT</text>
        <text x="87.5" y="18">3</text>
        <text x="37.5" y="43">KOO</text>
        <text x="87.5" y="43">2</text>
    </g>
    <path class="line" d="M355 55h12.5v-12.5h12.5"/>
    <g transform="translate(380 5)">
        <title>Final</title>
        <path class="line" d="M0 0H100V50H0ZM0 25H100M75 0V50"/>
        <text x="37.5" y="18">SKT</text>
        <text x="87.5" y="18">3</text>
        <text x="37.5" y="43">KT</text>
        <text x="87.5" y="43">0</text>
    </g>
</svg>
