<svg width="485" height="135" xmlns="http://www.w3.org/2000/svg" xmlns:xlink="http://www.w3.org/1999/xlink">
    <style>
        /* <![CDATA[ */
        #box, #line1 { fill: none; stroke: black; stroke-width: 1px; }
        text { text-anchor: middle; }
        /* ]]> */
    </style>
    <defs>
        <path id="box" d="M0 0H100V50H0ZM0 25H100M75 0V50"/>
        <path id="line1" d="M0 12.5H12.5V0H25"/>
    </defs>
    <g transform="translate(5 80)">
        <title>Round 1</title>
        <use xlink:href="#box"/>
        <text x="37.5" y="18">SKT</text>
        <text x="87.5" y="18">0</text>
        <text x="37.5" y="43">AFS</text>
        <text x="87.5" y="43">0</text>
    </g>
    <use xlink:href="#line1" transform="translate(105 92.5)"/>
    <g transform="translate(130 55)">
        <title>Round 2</title>
        <use xlink:href="#box"/>
        <text x="37.5" y="18">SSG</text>
        <text x="87.5" y="18">0</text>
        <text x="37.5" y="43"></text>
        <text x="87.5" y="43">0</text>
    </g>
    <use xlink:href="#line1" transform="translate(230 67.5)"/>
    <g transform="translate(255 30)">
        <title>Round 3</title>
        <use xlink:href="#box"/>
        <text x="37.5" y="18">KT</text>
        <text x="87.5" y="18">0</text>
        <text x="37.5" y="43"></text>
        <text x="87.5" y="43">0</text>
    </g>
    <use xlink:href="#line1" transform="translate(355 42.5)"/>
    <g transform="translate(380 5)">
        <title>Final</title>
        <use xlink:href="#box"/>
        <text x="37.5" y="18">LZ</text>
        <text x="87.5" y="18">0</text>
        <text x="37.5" y="43"></text>
        <text x="87.5" y="43">0</text>
    </g>
</svg>
